<svg width="256" height="128" viewBox="0 0 256 128" fill="none" xmlns="http://www.w3.org/2000/svg">
    <!-- Frame 0 (x=0-63): Original wheel position -->
    <g id="frame0">
        <rect x="2" y="20" width="8" height="16" rx="2" fill="#222222"/>
        <rect x="54" y="20" width="8" height="16" rx="2" fill="#222222"/>
        <rect x="2" y="92" width="8" height="16" rx="2" fill="#222222"/>
        <rect x="54" y="92" width="8" height="16" rx="2" fill="#222222"/>

        <path d="M12 10C12 4.47715 16.4772 0 22 0H42C47.5228 0 52 4.47715 52 10V118C52 123.523 47.5228 128 42 128H22C16.4772 128 12 123.523 12 118V10Z" fill="url(#paint0_linear)"/>

        <path d="M16 36L20 24H44L48 36H16Z" fill="#004455"/>
        <rect x="18" y="42" width="28" height="20" fill="#003344"/>
        <path d="M18 68L22 76H42L46 68H18Z" fill="#004455"/>
        <rect x="14" y="114" width="36" height="8" rx="2" fill="#006677"/>
    </g>

    <!-- Frame 1 (x=64-127): Wheels down +2px -->
    <g id="frame1" transform="translate(64, 0)">
        <rect x="2" y="22" width="8" height="16" rx="2" fill="#222222"/>
        <rect x="54" y="22" width="8" height="16" rx="2" fill="#222222"/>
        <rect x="2" y="94" width="8" height="16" rx="2" fill="#222222"/>
        <rect x="54" y="94" width="8" height="16" rx="2" fill="#222222"/>

        <path d="M12 10C12 4.47715 16.4772 0 22 0H42C47.5228 0 52 4.47715 52 10V118C52 123.523 47.5228 128 42 128H22C16.4772 128 12 123.523 12 118V10Z" fill="url(#paint1_linear)"/>

        <path d="M16 36L20 24H44L48 36H16Z" fill="#004455"/>
        <rect x="18" y="42" width="28" height="20" fill="#003344"/>
        <path d="M18 68L22 76H42L46 68H18Z" fill="#004455"/>
        <rect x="14" y="114" width="36" height="8" rx="2" fill="#006677"/>
    </g>

    <!-- Frame 2 (x=128-191): Wheels down +1px -->
    <g id="frame2" transform="translate(128, 0)">
        <rect x="2" y="21" width="8" height="16" rx="2" fill="#222222"/>
        <rect x="54" y="21" width="8" height="16" rx="2" fill="#222222"/>
        <rect x="2" y="93" width="8" height="16" rx="2" fill="#222222"/>
        <rect x="54" y="93" width="8" height="16" rx="2" fill="#222222"/>

        <path d="M12 10C12 4.47715 16.4772 0 22 0H42C47.5228 0 52 4.47715 52 10V118C52 123.523 47.5228 128 42 128H22C16.4772 128 12 123.523 12 118V10Z" fill="url(#paint2_linear)"/>

        <path d="M16 36L20 24H44L48 36H16Z" fill="#004455"/>
        <rect x="18" y="42" width="28" height="20" fill="#003344"/>
        <path d="M18 68L22 76H42L46 68H18Z" fill="#004455"/>
        <rect x="14" y="114" width="36" height="8" rx="2" fill="#006677"/>
    </g>

    <!-- Frame 3 (x=192-255): Wheels up -1px -->
    <g id="frame3" transform="translate(192, 0)">
        <rect x="2" y="19" width="8" height="16" rx="2" fill="#222222"/>
        <rect x="54" y="19" width="8" height="16" rx="2" fill="#222222"/>
        <rect x="2" y="91" width="8" height="16" rx="2" fill="#222222"/>
        <rect x="54" y="91" width="8" height="16" rx="2" fill="#222222"/>

        <path d="M12 10C12 4.47715 16.4772 0 22 0H42C47.5228 0 52 4.47715 52 10V118C52 123.523 47.5228 128 42 128H22C16.4772 128 12 123.523 12 118V10Z" fill="url(#paint3_linear)"/>

        <path d="M16 36L20 24H44L48 36H16Z" fill="#004455"/>
        <rect x="18" y="42" width="28" height="20" fill="#003344"/>
        <path d="M18 68L22 76H42L46 68H18Z" fill="#004455"/>
        <rect x="14" y="114" width="36" height="8" rx="2" fill="#006677"/>
    </g>

    <defs>
        <linearGradient id="paint0_linear" x1="32" y1="0" x2="32" y2="128" gradientUnits="userSpaceOnUse">
            <stop stop-color="#00AACC"/>
            <stop offset="1" stop-color="#0088AA"/>
        </linearGradient>
        <linearGradient id="paint1_linear" x1="32" y1="0" x2="32" y2="128" gradientUnits="userSpaceOnUse">
            <stop stop-color="#00AACC"/>
            <stop offset="1" stop-color="#0088AA"/>
        </linearGradient>
        <linearGradient id="paint2_linear" x1="32" y1="0" x2="32" y2="128" gradientUnits="userSpaceOnUse">
            <stop stop-color="#00AACC"/>
            <stop offset="1" stop-color="#0088AA"/>
        </linearGradient>
        <linearGradient id="paint3_linear" x1="32" y1="0" x2="32" y2="128" gradientUnits="userSpaceOnUse">
            <stop stop-color="#00AACC"/>
            <stop offset="1" stop-color="#0088AA"/>
        </linearGradient>
    </defs>
</svg>
