<svg width="192" height="128" viewBox="0 0 192 128" fill="none" xmlns="http://www.w3.org/2000/svg">
    <!-- Frame 0 (x=0-63): Original wheel position -->
    <g id="frame0">
        <rect x="0" y="18" width="10" height="18" rx="1" fill="#331111"/>
        <rect x="54" y="18" width="10" height="18" rx="1" fill="#331111"/>
        <rect x="0" y="90" width="10" height="18" rx="1" fill="#331111"/>
        <rect x="54" y="90" width="10" height="18" rx="1" fill="#331111"/>

        <rect x="10" y="4" width="44" height="120" rx="4" fill="url(#paint0_linear)"/>

        <rect x="14" y="28" width="36" height="12" fill="#441111"/>
        <rect x="16" y="44" width="32" height="24" fill="#330000"/>
        <rect x="16" y="72" width="32" height="10" fill="#441111"/>
        <rect x="12" y="0" width="40" height="4" fill="#662222"/>
        <rect x="12" y="124" width="40" height="4" fill="#662222"/>
    </g>

    <!-- Frame 1 (x=64-127): Wheels down +2px -->
    <g id="frame1" transform="translate(64, 0)">
        <rect x="0" y="20" width="10" height="18" rx="1" fill="#331111"/>
        <rect x="54" y="20" width="10" height="18" rx="1" fill="#331111"/>
        <rect x="0" y="92" width="10" height="18" rx="1" fill="#331111"/>
        <rect x="54" y="92" width="10" height="18" rx="1" fill="#331111"/>

        <rect x="10" y="4" width="44" height="120" rx="4" fill="url(#paint1_linear)"/>

        <rect x="14" y="28" width="36" height="12" fill="#441111"/>
        <rect x="16" y="44" width="32" height="24" fill="#330000"/>
        <rect x="16" y="72" width="32" height="10" fill="#441111"/>
        <rect x="12" y="0" width="40" height="4" fill="#662222"/>
        <rect x="12" y="124" width="40" height="4" fill="#662222"/>
    </g>

    <!-- Frame 2 (x=128-191): Wheels down +1px -->
    <g id="frame2" transform="translate(128, 0)">
        <rect x="0" y="19" width="10" height="18" rx="1" fill="#331111"/>
        <rect x="54" y="19" width="10" height="18" rx="1" fill="#331111"/>
        <rect x="0" y="91" width="10" height="18" rx="1" fill="#331111"/>
        <rect x="54" y="91" width="10" height="18" rx="1" fill="#331111"/>

        <rect x="10" y="4" width="44" height="120" rx="4" fill="url(#paint2_linear)"/>

        <rect x="14" y="28" width="36" height="12" fill="#441111"/>
        <rect x="16" y="44" width="32" height="24" fill="#330000"/>
        <rect x="16" y="72" width="32" height="10" fill="#441111"/>
        <rect x="12" y="0" width="40" height="4" fill="#662222"/>
        <rect x="12" y="124" width="40" height="4" fill="#662222"/>
    </g>

    <defs>
        <linearGradient id="paint0_linear" x1="32" y1="4" x2="32" y2="124" gradientUnits="userSpaceOnUse">
            <stop stop-color="#AA4444"/>
            <stop offset="1" stop-color="#883333"/>
        </linearGradient>
        <linearGradient id="paint1_linear" x1="32" y1="4" x2="32" y2="124" gradientUnits="userSpaceOnUse">
            <stop stop-color="#AA4444"/>
            <stop offset="1" stop-color="#883333"/>
        </linearGradient>
        <linearGradient id="paint2_linear" x1="32" y1="4" x2="32" y2="124" gradientUnits="userSpaceOnUse">
            <stop stop-color="#AA4444"/>
            <stop offset="1" stop-color="#883333"/>
        </linearGradient>
    </defs>
</svg>
