<?xml version="1.0" encoding="UTF-8"?>
<svg xmlns="http://www.w3.org/2000/svg" width="96" height="48" viewBox="0 0 96 48" shape-rendering="crispEdges">
  <!-- Frame 0 (x=0) -->
  <rect x="0" y="0" width="32" height="48" fill="#0b0b0b"/>
  <rect x="6" y="6" width="20" height="36" fill="#ff5555"/>
  <rect x="10" y="12" width="12" height="8" fill="#aa2222"/>
  <!-- Wheels frame 0: horizontal -->
  <rect x="6" y="38" width="6" height="4" fill="#111"/>
  <rect x="20" y="38" width="6" height="4" fill="#111"/>

  <!-- Frame 1 (x=32) -->
  <rect x="32" y="0" width="32" height="48" fill="#0b0b0b"/>
  <rect x="38" y="6" width="20" height="36" fill="#ff5555"/>
  <rect x="42" y="12" width="12" height="8" fill="#aa2222"/>
  <!-- Wheels frame 1: diagonal -->
  <rect x="39" y="37" width="5" height="5" fill="#111"/>
  <rect x="40" y="36" width="3" height="2" fill="#222"/>
  <rect x="52" y="37" width="5" height="5" fill="#111"/>
  <rect x="53" y="36" width="3" height="2" fill="#222"/>

  <!-- Frame 2 (x=64) -->
  <rect x="64" y="0" width="32" height="48" fill="#0b0b0b"/>
  <rect x="70" y="6" width="20" height="36" fill="#ff5555"/>
  <rect x="74" y="12" width="12" height="8" fill="#aa2222"/>
  <!-- Wheels frame 2: vertical -->
  <rect x="71" y="37" width="4" height="6" fill="#111"/>
  <rect x="85" y="37" width="4" height="6" fill="#111"/>
</svg>
